<?xml version="1.0" standalone="no"?>
<!DOCTYPE svg PUBLIC "-//W3C//DTD SVG 20010904//EN"
 "http://www.w3.org/TR/2001/REC-SVG-20010904/DTD/svg10.dtd">
<svg version="1.0" xmlns="http://www.w3.org/2000/svg"
 width="356.000000pt" height="356.000000pt" viewBox="0 0 356.000000 356.000000"
 preserveAspectRatio="xMidYMid meet">
<metadata>
Created by potrace 1.14, written by Peter Selinger 2001-2017
</metadata>
<g transform="translate(0.000000,356.000000) scale(0.100000,-0.100000)"
fill="#000000" stroke="none">
<path d="M1638 3555 c-1 -2 -32 -6 -68 -9 -36 -3 -76 -8 -90 -11 -14 -3 -40
-8 -59 -11 -54 -9 -223 -61 -308 -95 -99 -39 -284 -138 -338 -181 -5 -5 -41
-32 -80 -60 -38 -28 -116 -97 -171 -153 -285 -285 -463 -649 -511 -1042 -14
-111 -6 -473 11 -501 2 -4 7 -28 10 -54 13 -98 92 -330 152 -451 168 -334 473
-638 809 -804 137 -68 359 -140 490 -158 28 -4 59 -10 70 -12 11 -3 99 -6 195
-8 262 -4 438 26 675 117 227 87 429 220 611 402 227 228 371 474 460 786 29
101 32 115 53 270 14 101 6 382 -13 490 -23 128 -67 290 -96 355 -117 261
-189 375 -346 551 -277 308 -663 511 -1084 569 -49 7 -366 15 -372 10z"/>
</g>
</svg>
